<?xml version="1.0" encoding="utf-8"?>
<!DOCTYPE svg PUBLIC "-//W3C//DTD SVG 1.1//EN" "http://www.w3.org/Graphics/SVG/1.1/DTD/svg11.dtd">
<svg version="1.1" id="layer_1" xmlns="http://www.w3.org/2000/svg" xmlns:xlink="http://www.w3.org/1999/xlink" x="0px" y="0px"
	 width="233.6152px" height="233.6162px" viewBox="0 0 233.6152 233.6162" enable-background="new 0 0 233.6152 233.6162"
	 xml:space="preserve">
<g>
	<g>
		<polygon fill="#EEA234" points="196.7773,79.5225 233.6152,116.8037 191.4805,95.791 		"/>
		<polygon fill="#BA2224" points="233.6152,116.8037 197.751,152.5615 166.3965,138.2217 		"/>
		<polygon fill="#EEA234" points="191.4805,95.791 154.8301,95.791 148.8926,128.9131 		"/>
		<polygon fill="#3490AC" points="0,116.8037 48.1289,101.604 52.9189,63.8799 		"/>
		<polygon fill="#57C3F0" points="52.9189,63.8799 48.1289,101.604 90.4541,101.6113 		"/>
		<polygon fill="#45A4C6" points="48.1289,101.604 0,116.8037 42.7168,130.1729 		"/>
		<polygon fill="#084152" points="78.1748,174.1602 36.5049,153.2773 89.332,206.1416 		"/>
		<polygon fill="#353F5E" points="78.1748,174.1602 89.332,206.1416 106.8652,174.1602 		"/>
		<polygon fill="#B5BE26" points="90.2744,101.5776 96.2852,67.7231 52.9189,63.8799 		"/>
		<polygon fill="#1B8388" points="78.1748,174.1602 85.6885,130.1729 36.5049,153.2773 		"/>
		<polygon fill="#8F1D4C" points="161.7363,188.6943 106.8652,174.1602 116.8047,233.6162 		"/>
		<polygon fill="#7B7B60" points="126.2227,95.8545 120.3281,128.9131 114.1797,132.1797 119.5029,101.6113 90.2744,101.6113
			91.2051,95.8545 		"/>
		<polygon fill="#57387C" points="116.8047,233.6162 106.8652,174.1602 89.332,206.1416 		"/>
		<polygon fill="#DF1973" points="166.3965,138.2217 148.9199,128.9131 120.3281,128.9131 114.1797,132.1797 106.8652,174.1602
			"/>
		<polygon fill="#2E81B0" points="0,116.8037 36.5049,153.2773 42.7168,130.1729 		"/>
		<polygon fill="#13687B" points="36.5049,153.2773 85.6885,130.1729 42.7168,130.1729 		"/>
		<polygon fill="#D9DB2F" points="116.8047,0 96.2852,67.7231 52.9189,63.8799 		"/>
		<polygon fill="#EC862B" points="191.4805,95.791 233.6152,116.8037 166.3965,138.2217 148.8926,128.9131 		"/>
		<polygon fill="#7E191E" points="161.7363,188.6943 166.3965,138.2217 197.751,152.5615 		"/>
		<polygon fill="#AF1E46" points="161.7363,188.6943 106.8652,174.1602 166.3965,138.2217 		"/>
		<polygon fill="#EDE738" points="116.8047,0 165.7158,48.9253 96.2852,67.7231 		"/>
		<polygon fill="#E9C433" points="165.7158,48.9253 154.7275,67.7339 96.2852,67.7231 		"/>
		<polygon fill="#F4C51F" points="157.9443,62.2383 165.7158,48.9253 196.7773,79.5225 191.4805,95.791 		"/>
	</g>
	<polygon fill="#EEA234" points="196.7773,79.5225 233.6152,116.8037 191.4805,95.791 	"/>
	<polygon fill="#D4222F" points="233.6152,116.8037 197.751,152.5615 166.3965,138.2217 	"/>
	<polygon fill="#EEA234" points="191.4805,95.791 154.8301,95.791 148.8926,128.9131 	"/>
	<polygon fill="#2DA1D3" points="0,116.8037 48.1289,101.604 52.9189,63.8799 	"/>
	<polygon fill="#47B5D3" points="52.9189,63.8799 48.1289,101.604 90.4541,101.6113 	"/>
	<polygon fill="#3FB0D8" points="48.1289,101.604 0,116.8037 42.7168,130.1729 	"/>
	<polygon fill="#135B81" points="78.1748,174.1602 36.5049,153.2773 89.332,206.1416 	"/>
	<polygon fill="#1F3A59" points="78.1748,174.1602 89.332,206.1416 106.8652,174.1602 	"/>
	<polygon fill="#A5C73F" points="90.2744,101.5776 96.2852,67.7231 52.9189,63.8799 	"/>
	<polygon fill="#1B8388" points="78.1748,174.1602 85.6885,130.1729 36.5049,153.2773 	"/>
	<polygon fill="#871E4D" points="161.7363,188.6943 106.8652,174.1602 116.8047,233.6162 	"/>
	<polygon fill="#93A858" points="126.2227,95.8545 120.3281,128.9131 114.1797,132.1797 119.5029,101.6113 90.2744,101.6113
		91.3398,95.8442 	"/>
	<polygon fill="#4B336E" points="116.8047,233.6162 106.8652,174.1602 89.332,206.1416 	"/>
	<polygon fill="#DF1973" points="166.3965,138.2217 148.9199,128.9131 120.3281,128.9131 114.1797,132.1797 106.8652,174.1602 	"/>
	<polygon fill="#1C89A1" points="0,116.8037 36.5049,153.2773 42.7168,130.1729 	"/>
	<polygon fill="#13687B" points="36.5049,153.2773 70.2285,137.4365 85.6885,130.1729 42.7168,130.1729 	"/>
	<polygon fill="#D9DB2F" points="116.8047,0 96.2852,67.7231 52.9189,63.8799 	"/>
	<polygon fill="#EC862B" points="191.4805,95.791 233.6152,116.8037 166.3965,138.2217 148.8926,128.9131 	"/>
	<polygon fill="#A01F2A" points="161.7363,188.6943 166.3965,138.2217 197.751,152.5615 	"/>
	<polygon fill="#C41E4F" points="161.7363,188.6943 106.8652,174.1602 166.3965,138.2217 	"/>
	<polygon fill="#EDE738" points="116.8047,0 165.7158,48.9253 96.2852,67.7231 	"/>
	<polygon fill="#E9C433" points="165.7158,48.9253 154.7275,67.7339 96.2852,67.7231 	"/>
	<polygon fill="#F4C51F" points="157.9443,62.2383 165.7158,48.9253 196.7773,79.5225 191.4805,95.791 	"/>
	<g>
		<polygon fill="#FFFFFF" points="126.2754,95.604 120.3086,128.9131 148.875,128.9131 154.8223,95.6743 		"/>
		<polygon fill="#FFFFFF" points="96.2637,67.7231 91.1875,95.8066 153.5566,95.8066 153.5566,95.7944 158.3779,95.7944
			158.876,67.7231 		"/>
		<polygon fill="#FFFFFF" points="48.1143,101.604 42.6963,130.1729 85.6689,130.1729 78.1582,174.1602 106.8428,174.1602
			119.4854,101.6167 		"/>
		<polygon fill="#FFFFFF" points="191.46,95.8066 157.9199,95.8066 153.6934,69.4727 157.9199,62.2383 157.9199,62.2383 		"/>
	</g>
</g>
</svg>
