<?xml version="1.0" encoding="utf-8"?>
<!DOCTYPE svg PUBLIC "-//W3C//DTD SVG 1.1//EN" "http://www.w3.org/Graphics/SVG/1.1/DTD/svg11.dtd">
<svg version="1.1" id="layer_1" xmlns="http://www.w3.org/2000/svg" xmlns:xlink="http://www.w3.org/1999/xlink" x="0px" y="0px"
	 width="234.3711px" height="234.3721px" viewBox="0 0 234.3711 234.3721" enable-background="new 0 0 234.3711 234.3721"
	 xml:space="preserve">
<g>
	<path fill="#626874" d="M233.9932,117.5596c-0.0566,0-0.1152-0.0127-0.1689-0.04l-42.1348-21.0127
		c-0.167-0.0835-0.248-0.2773-0.1904-0.4551l5.2979-16.2686c0.04-0.125,0.1436-0.2197,0.2725-0.2505
		c0.127-0.0308,0.2627,0.0083,0.3545,0.1021l36.8369,37.2813c0.1309,0.1328,0.1465,0.3379,0.0381,0.4883
		C234.2256,117.5039,234.1104,117.5596,233.9932,117.5596z M192.3184,95.9766l39.8057,19.8516l-34.8008-35.2212L192.3184,95.9766z"
		/>
	<path fill="#626874" d="M198.1289,153.3164c-0.0527,0-0.1064-0.0098-0.1572-0.0332l-31.3545-14.3398
		c-0.1416-0.0645-0.2295-0.2109-0.2197-0.3662s0.1133-0.29,0.2627-0.3369l67.2178-21.418c0.166-0.0508,0.3467,0.0146,0.4375,0.1641
		c0.0898,0.1484,0.0674,0.3398-0.0566,0.4629l-35.8633,35.7578C198.3232,153.2793,198.2275,153.3164,198.1289,153.3164z
		 M167.8193,138.6641l30.2285,13.8232l34.5742-34.4717L167.8193,138.6641z"/>
	<path fill="#626874" d="M149.2715,129.6689c-0.0674,0-0.1357-0.0176-0.1963-0.0547c-0.1328-0.0801-0.2031-0.2354-0.1758-0.3896
		l5.9365-33.1226c0.0322-0.1797,0.1885-0.3105,0.3721-0.3105h36.6504c0.1611,0,0.3047,0.1021,0.3564,0.2549
		c0.0527,0.1523,0.002,0.3218-0.125,0.4204l-42.5869,33.123C149.4346,129.6426,149.3525,129.6689,149.2715,129.6689z
		 M155.5234,96.5464l-5.707,31.8423l40.9414-31.8423H155.5234z"/>
	<path fill="#626874" d="M0.3779,117.5596c-0.1289,0-0.2529-0.0674-0.3223-0.1816c-0.0908-0.1494-0.0674-0.3398,0.0557-0.4629
		l52.9189-52.9243c0.1143-0.1143,0.291-0.1436,0.4326-0.0718c0.1455,0.0708,0.2285,0.2266,0.209,0.3867l-4.79,37.7241
		c-0.0186,0.146-0.1211,0.2681-0.2617,0.312L0.4912,117.542C0.4541,117.5547,0.416,117.5596,0.3779,117.5596z M52.7832,65.3052
		L1.7373,116.3574l46.4248-14.6626L52.7832,65.3052z"/>
	<path fill="#626874" d="M90.833,102.3667L90.833,102.3667l-42.3262-0.0073c-0.1084,0-0.2119-0.0464-0.2832-0.1279
		c-0.0713-0.0811-0.1045-0.1895-0.0918-0.2969l4.791-37.7241c0.0176-0.1431,0.1162-0.2632,0.2529-0.3101
		c0.1377-0.0459,0.2871-0.0107,0.3896,0.0913l37.5352,37.731c0.1074,0.1084,0.1387,0.2705,0.0811,0.4111
		C91.1221,102.2749,90.9854,102.3667,90.833,102.3667z M48.9355,101.6045l40.9883,0.0068L53.5742,65.0718L48.9355,101.6045z"/>
	<path fill="#626874" d="M43.0957,130.9287c-0.0381,0-0.0762-0.0059-0.1133-0.0166L0.2656,117.543
		c-0.1572-0.0498-0.2646-0.1953-0.2646-0.3604s0.1064-0.3115,0.2637-0.3604l48.1289-15.2002
		c0.125-0.0391,0.2646-0.0107,0.3643,0.0776c0.0986,0.0879,0.1455,0.2222,0.1201,0.3525l-5.4121,28.5688
		c-0.0195,0.1055-0.084,0.1982-0.1768,0.2539C43.2305,130.9102,43.1631,130.9287,43.0957,130.9287z M1.6367,117.1807l41.167,12.8838
		l5.2148-27.5322L1.6367,117.1807z"/>
	<path fill="#626874" d="M89.71,206.8965c-0.0977,0-0.1934-0.0371-0.2666-0.1104l-52.8271-52.8643
		c-0.1309-0.1309-0.1475-0.3369-0.0391-0.4883c0.1084-0.1504,0.3105-0.1973,0.4746-0.1152l41.6699,20.8818
		c0.0879,0.0449,0.1553,0.1211,0.1875,0.2129l11.1572,31.9814c0.0576,0.167-0.0068,0.3506-0.1553,0.4443
		C89.8486,206.8779,89.7793,206.8965,89.71,206.8965z M38.7979,155.0371l50.0117,50.0459l-10.5625-30.2754L38.7979,155.0371z"/>
	<path fill="#626874" d="M89.71,206.8965c-0.0098,0-0.0205,0-0.0313-0.001c-0.1484-0.0127-0.2764-0.1113-0.3242-0.252
		l-11.1582-31.9805c-0.04-0.1162-0.0215-0.2441,0.0488-0.3428c0.0713-0.1006,0.1855-0.1602,0.3076-0.1602h28.6904
		c0.1338,0,0.2568,0.0703,0.3252,0.1855s0.0703,0.2578,0.0059,0.374L90.041,206.7002
		C89.9746,206.8223,89.8477,206.8965,89.71,206.8965z M79.085,174.916l10.7021,30.6777l16.8184-30.6777H79.085z"/>
	<path fill="#626874" d="M90.6523,102.333c-0.0996,0-0.1963-0.0391-0.2686-0.1118L53.0283,64.5239
		c-0.1113-0.1128-0.1406-0.2832-0.0723-0.4263c0.0664-0.144,0.2119-0.2324,0.374-0.2158l43.3662,3.8433
		c0.1055,0.0093,0.2012,0.0625,0.2666,0.1465c0.0635,0.084,0.0898,0.1909,0.0713,0.2954l-6.0098,33.8545
		c-0.0244,0.1392-0.125,0.2524-0.2588,0.2944C90.7275,102.3276,90.6904,102.333,90.6523,102.333z M54.292,64.7251l36.1162,36.4473
		l5.8105-32.7319L54.292,64.7251z"/>
	<path fill="#626874" d="M78.5527,174.916c-0.0576,0-0.1162-0.0137-0.1689-0.04l-41.6699-20.8828
		c-0.1289-0.0654-0.209-0.1982-0.208-0.3428c0.002-0.1445,0.0859-0.2754,0.2168-0.3359l49.1826-23.1055
		c0.1289-0.0605,0.2773-0.0449,0.3896,0.042c0.1123,0.085,0.167,0.2246,0.1436,0.3633l-7.5137,43.9873
		c-0.0205,0.1182-0.0947,0.2197-0.2012,0.2734C78.6699,174.9023,78.6113,174.916,78.5527,174.916z M37.7471,153.666l40.5195,20.3066
		l7.3057-42.7734L37.7471,153.666z"/>
	<path fill="#626874" d="M117.1826,234.3721c-0.0381,0-0.0781-0.0059-0.1152-0.0176c-0.1348-0.0439-0.2334-0.1582-0.2578-0.2979
		l-9.9385-59.4561c-0.0215-0.127,0.0234-0.2549,0.1182-0.3418c0.0947-0.0859,0.2266-0.1172,0.3506-0.0859l54.8711,14.5342
		c0.1309,0.0352,0.2334,0.1367,0.2676,0.2676c0.0361,0.1299-0.001,0.2695-0.0967,0.3643l-44.9326,44.9229
		C117.377,234.334,117.2813,234.3721,117.1826,234.3721z M107.7119,175.0527l9.7227,58.1563l43.9492-43.9395L107.7119,175.0527z"/>
	<path fill="#626874" d="M114.5576,132.9355c-0.0781,0-0.1563-0.0254-0.2227-0.0723c-0.1162-0.084-0.1748-0.2285-0.1494-0.3711
		l5.2461-30.1255H90.6523c-0.1104,0-0.2158-0.0488-0.2871-0.1328c-0.0713-0.0845-0.1025-0.1958-0.085-0.3052l0.9307-5.7563
		c0.0293-0.1831,0.1875-0.3179,0.3721-0.3179h35.0176c0.1113,0,0.2168,0.0498,0.2891,0.1357
		c0.0723,0.0854,0.1025,0.1982,0.082,0.3086l-5.8945,33.0586c-0.0205,0.1152-0.0918,0.2129-0.1943,0.2676l-6.1484,3.2656
		C114.6787,132.9199,114.6182,132.9355,114.5576,132.9355z M91.0957,101.6113h28.7852c0.1113,0,0.2178,0.0498,0.2891,0.1348
		s0.1016,0.1978,0.083,0.3076l-5.1914,29.8086l5.3047-2.8174l5.7832-32.4351H91.9053L91.0957,101.6113z"/>
	<path fill="#626874" d="M117.1826,234.3721c-0.0977,0-0.1953-0.0381-0.2676-0.1104l-27.4717-27.4756
		c-0.1191-0.1191-0.1445-0.3018-0.0645-0.4482l17.5332-31.9814c0.0771-0.1406,0.2344-0.2158,0.3945-0.1904
		c0.1592,0.0273,0.2822,0.1514,0.3096,0.3105l9.9385,59.4561c0.0273,0.1611-0.0537,0.3223-0.2002,0.3975
		C117.3008,234.3584,117.2412,234.3721,117.1826,234.3721z M90.1777,206.4521l26.4375,26.4414l-9.5645-57.2188L90.1777,206.4521z"/>
	<path fill="#626874" d="M107.2432,174.916c-0.0742,0-0.1484-0.0225-0.2129-0.0654c-0.1221-0.085-0.1846-0.2314-0.1582-0.377
		l7.3135-41.9814c0.0205-0.1152,0.0918-0.2129,0.1943-0.2676l6.1494-3.2666c0.0537-0.0283,0.1143-0.0439,0.1768-0.0439h28.5918
		c0.0615,0,0.123,0.0156,0.1777,0.0439l17.4766,9.3086c0.1191,0.0645,0.1963,0.1875,0.1992,0.3232
		c0.0039,0.1357-0.0664,0.2637-0.1816,0.333l-59.5313,35.9385C107.3779,174.8984,107.3105,174.916,107.2432,174.916z
		 M114.8975,132.8047l-7.1406,40.9824l58.2529-35.166l-16.8066-8.9521h-28.4033L114.8975,132.8047z"/>
	<path fill="#626874" d="M36.8838,154.0332c-0.0996,0-0.1953-0.0391-0.2676-0.1113L0.1113,117.4492
		c-0.123-0.123-0.1465-0.3145-0.0557-0.4629c0.0898-0.1484,0.2695-0.2168,0.4355-0.1641l42.7168,13.3682
		c0.1934,0.0605,0.3047,0.2627,0.252,0.458l-6.2129,23.1055c-0.0342,0.1289-0.1357,0.2314-0.2666,0.2666
		C36.9492,154.0293,36.916,154.0332,36.8838,154.0332z M1.7334,118.002l34.9551,34.9248l5.9482-22.124L1.7334,118.002z"/>
	<path fill="#626874" d="M36.8838,154.0332c-0.0879,0-0.1738-0.0303-0.2432-0.0879c-0.1123-0.0938-0.1602-0.2461-0.1221-0.3877
		l6.2129-23.1045c0.0439-0.166,0.1934-0.2793,0.3643-0.2793h42.9707c0.1768,0,0.3301,0.1221,0.3691,0.2949
		c0.0381,0.1729-0.0479,0.3486-0.208,0.4238l-49.1836,23.1045C36.9922,154.0215,36.9385,154.0332,36.8838,154.0332z
		 M43.3857,130.9287l-5.9268,22.0381l46.916-22.0381H43.3857z"/>
	<path fill="#626874" d="M96.6631,68.4785c-0.0117,0-0.0225-0.0005-0.0332-0.0015l-43.3662-3.8433
		c-0.1455-0.0127-0.2705-0.1094-0.3213-0.2471c-0.0498-0.1377-0.0156-0.292,0.0879-0.396L116.915,0.1108
		c0.125-0.1226,0.3125-0.1455,0.4609-0.0566c0.1494,0.0889,0.2178,0.2676,0.168,0.4331L97.0244,68.2104
		C96.9756,68.3711,96.8281,68.4785,96.6631,68.4785z M54.1357,63.9531l42.2549,3.7451L116.3848,1.71L54.1357,63.9531z"/>
	<path fill="#626874" d="M166.7744,138.9775c-0.0615,0-0.123-0.0146-0.1777-0.0439l-17.502-9.3086
		c-0.1143-0.0605-0.1885-0.1738-0.1992-0.3008c-0.0117-0.1279,0.043-0.252,0.1445-0.3301l42.5859-33.123
		c0.1152-0.0889,0.2705-0.105,0.4004-0.04l42.1348,21.0127c0.1377,0.0693,0.2207,0.2139,0.208,0.3672
		c-0.0117,0.1533-0.1152,0.2842-0.2617,0.3311l-67.2188,21.418C166.8516,138.9717,166.8125,138.9775,166.7744,138.9775z
		 M149.9629,129.2314l16.8486,8.9609l66.1807-21.0879l-41.0898-20.4917L149.9629,129.2314z"/>
	<path fill="#626874" d="M162.1143,189.4502c-0.0547,0-0.1094-0.0117-0.1602-0.0361c-0.1445-0.0674-0.2305-0.2178-0.2158-0.376
		l4.6602-50.4727c0.0107-0.1221,0.0811-0.2314,0.1865-0.292c0.1055-0.0615,0.2334-0.0684,0.3467-0.0176l31.3545,14.3398
		c0.1123,0.0518,0.1924,0.1543,0.2148,0.2773c0.0215,0.1211-0.0176,0.2461-0.1035,0.332l-36.0156,36.1338
		C162.3096,189.4111,162.2119,189.4502,162.1143,189.4502z M167.1006,139.165l-4.5137,48.8984l34.8916-35.0059L167.1006,139.165z"/>
	<path fill="#626874" d="M162.1143,189.4502c-0.0322,0-0.0645-0.0049-0.0967-0.0127l-54.8711-14.5342
		c-0.1465-0.0391-0.2559-0.1621-0.2773-0.3115c-0.0205-0.1504,0.0488-0.2988,0.1787-0.377l59.5313-35.9375
		c0.1221-0.0732,0.2744-0.0732,0.3955,0.002c0.1211,0.0762,0.1885,0.2139,0.1758,0.3555l-4.6602,50.4717
		c-0.0098,0.1113-0.0684,0.2109-0.1602,0.2754C162.2666,189.4258,162.1914,189.4502,162.1143,189.4502z M108.2002,174.4014
		l53.5791,14.1914l4.5498-49.2832L108.2002,174.4014z"/>
	<path fill="#626874" d="M96.6631,68.4785c-0.1016,0-0.1992-0.04-0.2715-0.1147c-0.0957-0.0981-0.1299-0.2412-0.0898-0.3721
		l20.5195-67.7231c0.0381-0.127,0.1406-0.2246,0.2695-0.2568c0.1289-0.0327,0.2646,0.0059,0.3584,0.0991l48.9111,48.9258
		c0.0957,0.0952,0.1328,0.2339,0.0977,0.3643c-0.0342,0.1299-0.1357,0.2319-0.2656,0.2671L96.7617,68.4653
		C96.7295,68.4741,96.6963,68.4785,96.6631,68.4785z M117.3613,1.0908L97.2217,67.5586l68.1445-18.4492L117.3613,1.0908z"/>
	<path fill="#626874" d="M155.1055,68.4893L155.1055,68.4893l-58.4424-0.0107c-0.1895,0-0.3496-0.1401-0.375-0.3276
		c-0.0244-0.188,0.0928-0.3647,0.2754-0.4141l69.4316-18.7979c0.1504-0.0386,0.3047,0.0137,0.3984,0.1353
		c0.0928,0.1216,0.1035,0.2876,0.0254,0.4199l-10.9873,18.8081C155.3643,68.418,155.2402,68.4893,155.1055,68.4893z M99.5,67.7236
		l55.3887,0.0107l10.4141-17.8257L99.5,67.7236z"/>
	<path fill="#626874" d="M191.8584,96.5464c-0.0996,0-0.1953-0.0391-0.2676-0.1108l-33.5352-33.5527
		c-0.1221-0.1211-0.1455-0.3091-0.0586-0.457l7.7705-13.3125c0.0596-0.1006,0.1611-0.1685,0.2764-0.1841
		c0.1211-0.0142,0.2314,0.0244,0.3145,0.105l31.0625,30.5972c0.1016,0.1006,0.1387,0.25,0.0938,0.3857l-5.2979,16.2686
		c-0.04,0.125-0.1436,0.2197-0.2705,0.2505C191.917,96.543,191.8877,96.5464,191.8584,96.5464z M158.7949,62.5547l32.8955,32.9116
		l5.0342-15.4609l-30.5498-30.0923L158.7949,62.5547z"/>
</g>
<path fill="#626874" d="M233.9932,117.5596c-0.0566,0-0.1152-0.0127-0.1689-0.04l-42.1348-21.0127
	c-0.167-0.0835-0.248-0.2773-0.1904-0.4551l5.2979-16.2686c0.04-0.125,0.1436-0.2197,0.2725-0.2505
	c0.127-0.0308,0.2627,0.0083,0.3545,0.1021l36.8369,37.2813c0.1309,0.1328,0.1465,0.3379,0.0381,0.4883
	C234.2256,117.5039,234.1104,117.5596,233.9932,117.5596z M192.3184,95.9766l39.8057,19.8516l-34.8008-35.2212L192.3184,95.9766z"/>
<path fill="#626874" d="M198.1289,153.3164c-0.0527,0-0.1064-0.0098-0.1572-0.0332l-31.3545-14.3398
	c-0.1416-0.0645-0.2295-0.2109-0.2197-0.3662s0.1133-0.29,0.2627-0.3369l67.2178-21.418c0.166-0.0508,0.3467,0.0146,0.4375,0.1641
	c0.0898,0.1484,0.0674,0.3398-0.0566,0.4629l-35.8633,35.7578C198.3232,153.2793,198.2275,153.3164,198.1289,153.3164z
	 M167.8193,138.6641l30.2285,13.8232l34.5742-34.4717L167.8193,138.6641z"/>
<path fill="#626874" d="M149.2715,129.6689c-0.0674,0-0.1357-0.0176-0.1963-0.0547c-0.1328-0.0801-0.2031-0.2354-0.1758-0.3896
	l5.9365-33.1226c0.0322-0.1797,0.1885-0.3105,0.3721-0.3105h36.6504c0.1611,0,0.3047,0.1021,0.3564,0.2549
	c0.0527,0.1523,0.002,0.3218-0.125,0.4204l-42.5869,33.123C149.4346,129.6426,149.3525,129.6689,149.2715,129.6689z
	 M155.5234,96.5464l-5.707,31.8423l40.9414-31.8423H155.5234z"/>
<path fill="#626874" d="M0.3779,117.5596c-0.1289,0-0.2529-0.0674-0.3223-0.1816c-0.0908-0.1494-0.0674-0.3398,0.0557-0.4629
	l52.9189-52.9243c0.1143-0.1143,0.291-0.1436,0.4326-0.0718c0.1455,0.0708,0.2285,0.2266,0.209,0.3867l-4.79,37.7241
	c-0.0186,0.146-0.1211,0.2681-0.2617,0.312L0.4912,117.542C0.4541,117.5547,0.416,117.5596,0.3779,117.5596z M52.7832,65.3052
	L1.7373,116.3574l46.4248-14.6626L52.7832,65.3052z"/>
<path fill="#626874" d="M90.833,102.3667L90.833,102.3667l-42.3262-0.0073c-0.1084,0-0.2119-0.0464-0.2832-0.1279
	c-0.0713-0.0811-0.1045-0.1895-0.0918-0.2969l4.791-37.7241c0.0176-0.1431,0.1162-0.2632,0.2529-0.3101
	c0.1377-0.0459,0.2871-0.0107,0.3896,0.0913l37.5352,37.731c0.1074,0.1084,0.1387,0.2705,0.0811,0.4111
	C91.1221,102.2749,90.9854,102.3667,90.833,102.3667z M48.9355,101.6045l40.9883,0.0068L53.5742,65.0718L48.9355,101.6045z"/>
<path fill="#626874" d="M43.0957,130.9287c-0.0381,0-0.0762-0.0059-0.1133-0.0166L0.2656,117.543
	c-0.1572-0.0498-0.2646-0.1953-0.2646-0.3604s0.1064-0.3115,0.2637-0.3604l48.1289-15.2002
	c0.125-0.0391,0.2646-0.0107,0.3643,0.0776c0.0986,0.0879,0.1455,0.2222,0.1201,0.3525l-5.4121,28.5688
	c-0.0195,0.1055-0.084,0.1982-0.1768,0.2539C43.2305,130.9102,43.1631,130.9287,43.0957,130.9287z M1.6367,117.1807l41.167,12.8838
	l5.2148-27.5322L1.6367,117.1807z"/>
<path fill="#626874" d="M89.71,206.8965c-0.0977,0-0.1934-0.0371-0.2666-0.1104l-52.8271-52.8643
	c-0.1309-0.1309-0.1475-0.3369-0.0391-0.4883c0.1084-0.1504,0.3105-0.1973,0.4746-0.1152l41.6699,20.8818
	c0.0879,0.0449,0.1553,0.1211,0.1875,0.2129l11.1572,31.9814c0.0576,0.167-0.0068,0.3506-0.1553,0.4443
	C89.8486,206.8779,89.7793,206.8965,89.71,206.8965z M38.7979,155.0371l50.0117,50.0459l-10.5625-30.2754L38.7979,155.0371z"/>
<path fill="#626874" d="M89.71,206.8965c-0.0098,0-0.0205,0-0.0313-0.001c-0.1484-0.0127-0.2764-0.1113-0.3242-0.252
	l-11.1582-31.9805c-0.04-0.1162-0.0215-0.2441,0.0488-0.3428c0.0713-0.1006,0.1855-0.1602,0.3076-0.1602h28.6904
	c0.1338,0,0.2568,0.0703,0.3252,0.1855s0.0703,0.2578,0.0059,0.374L90.041,206.7002
	C89.9746,206.8223,89.8477,206.8965,89.71,206.8965z M79.085,174.916l10.7021,30.6777l16.8184-30.6777H79.085z"/>
<path fill="#626874" d="M90.6523,102.333c-0.0996,0-0.1963-0.0391-0.2686-0.1118L53.0283,64.5239
	c-0.1113-0.1128-0.1406-0.2832-0.0723-0.4263c0.0664-0.144,0.2119-0.2324,0.374-0.2158l43.3662,3.8433
	c0.1055,0.0093,0.2012,0.0625,0.2666,0.1465c0.0635,0.084,0.0898,0.1909,0.0713,0.2954l-6.0098,33.8545
	c-0.0244,0.1392-0.125,0.2524-0.2588,0.2944C90.7275,102.3276,90.6904,102.333,90.6523,102.333z M54.292,64.7251l36.1162,36.4473
	l5.8105-32.7319L54.292,64.7251z"/>
<path fill="#626874" d="M78.5527,174.916c-0.0576,0-0.1162-0.0137-0.1689-0.04l-41.6699-20.8828
	c-0.1289-0.0654-0.209-0.1982-0.208-0.3428c0.002-0.1445,0.0859-0.2754,0.2168-0.3359l49.1826-23.1055
	c0.1289-0.0605,0.2773-0.0449,0.3896,0.042c0.1123,0.085,0.167,0.2246,0.1436,0.3633l-7.5137,43.9873
	c-0.0205,0.1182-0.0947,0.2197-0.2012,0.2734C78.6699,174.9023,78.6113,174.916,78.5527,174.916z M37.7471,153.666l40.5195,20.3066
	l7.3057-42.7734L37.7471,153.666z"/>
<path fill="#626874" d="M117.1826,234.3721c-0.0381,0-0.0781-0.0059-0.1152-0.0176c-0.1348-0.0439-0.2334-0.1582-0.2578-0.2979
	l-9.9385-59.4561c-0.0215-0.127,0.0234-0.2549,0.1182-0.3418c0.0947-0.0859,0.2266-0.1172,0.3506-0.0859l54.8711,14.5342
	c0.1309,0.0352,0.2334,0.1367,0.2676,0.2676c0.0361,0.1299-0.001,0.2695-0.0967,0.3643l-44.9326,44.9229
	C117.377,234.334,117.2813,234.3721,117.1826,234.3721z M107.7119,175.0527l9.7227,58.1563l43.9492-43.9395L107.7119,175.0527z"/>
<path fill="#626874" d="M114.5576,132.9355c-0.0781,0-0.1563-0.0254-0.2227-0.0723c-0.1162-0.084-0.1748-0.2285-0.1494-0.3711
	l5.2461-30.1255H90.6523c-0.1123,0-0.2178-0.0498-0.29-0.1362c-0.0723-0.0859-0.1016-0.1997-0.0801-0.3101l1.0645-5.7671
	c0.0322-0.1792,0.1885-0.3091,0.3711-0.3091l0,0l34.8828,0.0103c0.1113,0,0.2168,0.0498,0.2891,0.1357
	c0.0723,0.0854,0.1025,0.1982,0.082,0.3086l-5.8945,33.0586c-0.0205,0.1152-0.0918,0.2129-0.1943,0.2676l-6.1484,3.2656
	C114.6787,132.9199,114.6182,132.9355,114.5576,132.9355z M91.1064,101.6113h28.7744c0.1113,0,0.2178,0.0498,0.2891,0.1348
	s0.1016,0.1978,0.083,0.3076l-5.1914,29.8086l5.3047-2.8174l5.7832-32.4351l-34.1182-0.0103L91.1064,101.6113z"/>
<path fill="#626874" d="M117.1826,234.3721c-0.0977,0-0.1953-0.0381-0.2676-0.1104l-27.4717-27.4756
	c-0.1191-0.1191-0.1445-0.3018-0.0645-0.4482l17.5332-31.9814c0.0771-0.1406,0.2344-0.2158,0.3945-0.1904
	c0.1592,0.0273,0.2822,0.1514,0.3096,0.3105l9.9385,59.4561c0.0273,0.1611-0.0537,0.3223-0.2002,0.3975
	C117.3008,234.3584,117.2412,234.3721,117.1826,234.3721z M90.1777,206.4521l26.4375,26.4414l-9.5645-57.2188L90.1777,206.4521z"/>
<path fill="#626874" d="M107.2432,174.916c-0.0742,0-0.1484-0.0225-0.2129-0.0654c-0.1221-0.085-0.1846-0.2314-0.1582-0.377
	l7.3135-41.9814c0.0205-0.1152,0.0918-0.2129,0.1943-0.2676l6.1494-3.2666c0.0537-0.0283,0.1143-0.0439,0.1768-0.0439h28.5918
	c0.0615,0,0.123,0.0156,0.1777,0.0439l17.4766,9.3086c0.1191,0.0645,0.1963,0.1875,0.1992,0.3232
	c0.0039,0.1357-0.0664,0.2637-0.1816,0.333l-59.5313,35.9385C107.3779,174.8984,107.3105,174.916,107.2432,174.916z
	 M114.8975,132.8047l-7.1406,40.9824l58.2529-35.166l-16.8066-8.9521h-28.4033L114.8975,132.8047z"/>
<path fill="#626874" d="M36.8838,154.0332c-0.0996,0-0.1953-0.0391-0.2676-0.1113L0.1113,117.4492
	c-0.123-0.123-0.1465-0.3145-0.0557-0.4629c0.0898-0.1484,0.2695-0.2168,0.4355-0.1641l42.7168,13.3682
	c0.1934,0.0605,0.3047,0.2627,0.252,0.458l-6.2129,23.1055c-0.0342,0.1289-0.1357,0.2314-0.2666,0.2666
	C36.9492,154.0293,36.916,154.0332,36.8838,154.0332z M1.7334,118.002l34.9551,34.9248l5.9482-22.124L1.7334,118.002z"/>
<path fill="#626874" d="M36.8838,154.0332c-0.0879,0-0.1738-0.0303-0.2432-0.0879c-0.1123-0.0938-0.1602-0.2461-0.1221-0.3877
	l6.2129-23.1045c0.0439-0.166,0.1934-0.2793,0.3643-0.2793h42.9707c0.1768,0,0.3301,0.1221,0.3691,0.2949
	c0.0381,0.1729-0.0479,0.3486-0.208,0.4238l-49.1836,23.1045C36.9922,154.0215,36.9385,154.0332,36.8838,154.0332z
	 M43.3857,130.9287l-5.9268,22.0381l46.916-22.0381H43.3857z"/>
<path fill="#626874" d="M96.6631,68.4785c-0.0117,0-0.0225-0.0005-0.0332-0.0015l-43.3662-3.8433
	c-0.1455-0.0127-0.2705-0.1094-0.3213-0.2471c-0.0498-0.1377-0.0156-0.292,0.0879-0.396L116.915,0.1108
	c0.125-0.1226,0.3125-0.1455,0.4609-0.0566c0.1494,0.0889,0.2178,0.2676,0.168,0.4331L97.0244,68.2104
	C96.9756,68.3711,96.8281,68.4785,96.6631,68.4785z M54.1357,63.9531l42.2549,3.7451L116.3848,1.71L54.1357,63.9531z"/>
<path fill="#626874" d="M166.7744,138.9775c-0.0615,0-0.123-0.0146-0.1777-0.0439l-17.502-9.3086
	c-0.1143-0.0605-0.1885-0.1738-0.1992-0.3008c-0.0117-0.1279,0.043-0.252,0.1445-0.3301l42.5859-33.123
	c0.1152-0.0889,0.2705-0.105,0.4004-0.04l42.1348,21.0127c0.1377,0.0693,0.2207,0.2139,0.208,0.3672
	c-0.0117,0.1533-0.1152,0.2842-0.2617,0.3311l-67.2188,21.418C166.8516,138.9717,166.8125,138.9775,166.7744,138.9775z
	 M149.9629,129.2314l16.8486,8.9609l66.1807-21.0879l-41.0898-20.4917L149.9629,129.2314z"/>
<path fill="#626874" d="M162.1143,189.4502c-0.0547,0-0.1094-0.0117-0.1602-0.0361c-0.1445-0.0674-0.2305-0.2178-0.2158-0.376
	l4.6602-50.4727c0.0107-0.1221,0.0811-0.2314,0.1865-0.292c0.1055-0.0615,0.2334-0.0684,0.3467-0.0176l31.3545,14.3398
	c0.1123,0.0518,0.1924,0.1543,0.2148,0.2773c0.0215,0.1211-0.0176,0.2461-0.1035,0.332l-36.0156,36.1338
	C162.3096,189.4111,162.2119,189.4502,162.1143,189.4502z M167.1006,139.165l-4.5137,48.8984l34.8916-35.0059L167.1006,139.165z"/>
<path fill="#626874" d="M162.1143,189.4502c-0.0322,0-0.0645-0.0049-0.0967-0.0127l-54.8711-14.5342
	c-0.1465-0.0391-0.2559-0.1621-0.2773-0.3115c-0.0205-0.1504,0.0488-0.2988,0.1787-0.377l59.5313-35.9375
	c0.1221-0.0732,0.2744-0.0732,0.3955,0.002c0.1211,0.0762,0.1885,0.2139,0.1758,0.3555l-4.6602,50.4717
	c-0.0098,0.1113-0.0684,0.2109-0.1602,0.2754C162.2666,189.4258,162.1914,189.4502,162.1143,189.4502z M108.2002,174.4014
	l53.5791,14.1914l4.5498-49.2832L108.2002,174.4014z"/>
<path fill="#626874" d="M96.6631,68.4785c-0.1016,0-0.1992-0.04-0.2715-0.1147c-0.0957-0.0981-0.1299-0.2412-0.0898-0.3721
	l20.5195-67.7231c0.0381-0.127,0.1406-0.2246,0.2695-0.2568c0.1289-0.0327,0.2646,0.0059,0.3584,0.0991l48.9111,48.9258
	c0.0957,0.0952,0.1328,0.2339,0.0977,0.3643c-0.0342,0.1299-0.1357,0.2319-0.2656,0.2671L96.7617,68.4653
	C96.7295,68.4741,96.6963,68.4785,96.6631,68.4785z M117.3613,1.0908L97.2217,67.5586l68.1445-18.4492L117.3613,1.0908z"/>
<path fill="#626874" d="M155.1055,68.4893L155.1055,68.4893l-58.4424-0.0107c-0.1895,0-0.3496-0.1401-0.375-0.3276
	c-0.0244-0.188,0.0928-0.3647,0.2754-0.4141l69.4316-18.7979c0.1504-0.0386,0.3047,0.0137,0.3984,0.1353
	c0.0928,0.1216,0.1035,0.2876,0.0254,0.4199l-10.9873,18.8081C155.3643,68.418,155.2402,68.4893,155.1055,68.4893z M99.5,67.7236
	l55.3887,0.0107l10.4141-17.8257L99.5,67.7236z"/>
<path fill="#626874" d="M191.8584,96.5464c-0.0996,0-0.1953-0.0391-0.2676-0.1108l-33.5352-33.5527
	c-0.1221-0.1211-0.1455-0.3091-0.0586-0.457l7.7705-13.3125c0.0596-0.1006,0.1611-0.1685,0.2764-0.1841
	c0.1211-0.0142,0.2314,0.0244,0.3145,0.105l31.0625,30.5972c0.1016,0.1006,0.1387,0.25,0.0938,0.3857l-5.2979,16.2686
	c-0.04,0.125-0.1436,0.2197-0.2705,0.2505C191.917,96.543,191.8877,96.5464,191.8584,96.5464z M158.7949,62.5547l32.8955,32.9116
	l5.0342-15.4609l-30.5498-30.0923L158.7949,62.5547z"/>
<g>
	<polygon fill="#626874" points="126.6533,95.9819 120.6865,129.291 149.2529,129.291 155.2012,96.0522 	"/>
	<polygon fill="#626874" points="96.6416,68.1011 91.5654,96.1846 153.9346,96.1846 153.9346,96.1724 158.7559,96.1724
		159.2539,68.1011 	"/>
	<polygon fill="#626874" points="48.4922,101.9819 43.0742,130.5508 86.0479,130.5508 78.5361,174.5381 107.2207,174.5381
		119.8633,101.9946 	"/>
	<polygon fill="#626874" points="191.8379,96.1846 158.2979,96.1846 154.0723,69.8506 158.2979,62.6162 158.2979,62.6162 	"/>
</g>
</svg>
